<svg width="61" height="18" viewBox="0 0 61 18" fill="none" xmlns="http://www.w3.org/2000/svg">
<path d="M22.3711 4.008L19.2191 11.752L16.0671 4.008H13.4111L17.8911 15H20.5311L25.0111 4.008H22.3711ZM29.1818 15.192C31.6298 15.192 33.6778 13.208 33.6778 10.856C33.6778 8.504 31.6298 6.536 29.1818 6.536C26.7178 6.536 24.6538 8.504 24.6538 10.856C24.6538 13.208 26.7178 15.192 29.1818 15.192ZM29.1818 13.224C27.9338 13.224 26.8938 12.136 26.8938 10.856C26.8938 9.576 27.9338 8.504 29.1818 8.504C30.4138 8.504 31.4538 9.576 31.4538 10.856C31.4538 12.136 30.4138 13.224 29.1818 13.224ZM35.2584 15H37.5944V3.816H35.2584V15ZM43.9854 12.952C43.8254 13.112 43.5054 13.224 43.1854 13.224C42.7534 13.224 42.4014 12.84 42.4014 12.296V8.616H44.1934V6.728H42.4014V4.456H40.1614V6.728H39.0254V8.616H40.1614V12.664C40.1614 14.152 41.1854 15.192 42.6414 15.192C43.3134 15.192 44.0654 14.904 44.5454 14.472L43.9854 12.952ZM49.7044 6.536C48.5524 6.536 47.4164 6.856 46.2484 7.448L47.0324 9C47.6884 8.664 48.4084 8.408 49.1764 8.408C50.5364 8.408 51.0804 9.176 51.0804 10.056V10.216C50.3764 9.944 49.6404 9.8 48.9684 9.8C47.0484 9.8 45.5284 10.92 45.5284 12.552C45.5284 14.136 46.8884 15.192 48.6484 15.192C49.5444 15.192 50.4884 14.84 51.0804 14.168V15H53.3364V10.056C53.3364 7.896 51.8644 6.536 49.7044 6.536ZM49.1764 13.576C48.3764 13.576 47.7844 13.16 47.7844 12.488C47.7844 11.816 48.4564 11.32 49.3044 11.32C49.9444 11.32 50.5524 11.432 51.0804 11.624V12.392C50.9204 13.16 50.0724 13.576 49.1764 13.576ZM57.6413 8.264V6.728H55.3053V15H57.6413V11.048C57.6413 9.496 58.7453 8.504 60.4733 8.504V6.536C59.2093 6.536 58.1853 7.192 57.6413 8.264Z" fill="#ABABAB"/>
<path d="M7.5 17L0 9.5L7.5 2" fill="#ABABAB"/>
</svg>
