<svg width="12" height="12" viewBox="0 0 12 12" fill="none" xmlns="http://www.w3.org/2000/svg">
<path d="M6 0C7.5913 0 9.11742 0.632141 10.2426 1.75736C11.3679 2.88258 12 4.4087 12 6C12 7.5913 11.3679 9.11742 10.2426 10.2426C9.11742 11.3679 7.5913 12 6 12C4.4087 12 2.88258 11.3679 1.75736 10.2426C0.632141 9.11742 0 7.5913 0 6C0 4.4087 0.632141 2.88258 1.75736 1.75736C2.88258 0.632141 4.4087 0 6 0ZM6 2.57143C5.89118 2.57134 5.78353 2.59394 5.68394 2.6378C5.58434 2.68166 5.49499 2.7458 5.42159 2.82614C5.34819 2.90648 5.29235 3.00125 5.25764 3.10439C5.22292 3.20753 5.21011 3.31677 5.22 3.42514L5.53286 6.85886C5.54499 6.9743 5.59943 7.08116 5.68569 7.15883C5.77196 7.23651 5.88392 7.27949 6 7.27949C6.11608 7.27949 6.22804 7.23651 6.31431 7.15883C6.40057 7.08116 6.45501 6.9743 6.46714 6.85886L6.77914 3.42514C6.78903 3.31684 6.77623 3.20767 6.74158 3.10459C6.70692 3.00151 6.65115 2.90679 6.57784 2.82646C6.50453 2.74613 6.41529 2.68197 6.31579 2.63806C6.2163 2.59415 6.10875 2.57145 6 2.57143ZM6 9.42857C6.18186 9.42857 6.35628 9.35633 6.48487 9.22773C6.61347 9.09913 6.68571 8.92472 6.68571 8.74286C6.68571 8.56099 6.61347 8.38658 6.48487 8.25798C6.35628 8.12939 6.18186 8.05714 6 8.05714C5.81814 8.05714 5.64372 8.12939 5.51513 8.25798C5.38653 8.38658 5.31429 8.56099 5.31429 8.74286C5.31429 8.92472 5.38653 9.09913 5.51513 9.22773C5.64372 9.35633 5.81814 9.42857 6 9.42857Z" fill="#900000"/>
</svg>
