<svg width="34" height="40" viewBox="0 0 34 40" fill="none" xmlns="http://www.w3.org/2000/svg">
<path d="M15.5792 8.04468C6.97941 8.04468 0 15.0241 0 23.6239C0 32.2237 6.97941 39.2031 15.5792 39.2031C24.1791 39.2031 31.1585 32.2237 31.1585 23.6239V8.04468H15.5792Z" fill="#ED4821"/>
<path d="M30.7277 7.23897C30.0984 6.21826 29.3606 5.25237 28.5811 4.34349C27.5275 3.11557 26.3434 1.8723 24.8721 1.15199C23.6223 0.540225 21.1116 0.27381 20.5459 1.98851C20.4176 2.37553 20.4845 2.80859 20.6588 3.17806C21.127 4.16697 22.1608 4.72612 23.0927 5.19645C25.4433 6.38052 28.1436 6.88375 30.7277 7.23897Z" fill="#39AE67"/>
<path d="M31.1694 7.26216C31.5849 6.98374 31.9751 6.66148 32.3423 6.32277C32.8378 5.86459 33.3365 5.3516 33.6138 4.7279C33.8495 4.19737 33.9207 3.14727 33.1973 2.93901C33.034 2.89187 32.8542 2.92585 32.704 3.00478C32.2995 3.21523 32.0825 3.65478 31.9017 4.05049C31.4457 5.04797 31.278 6.18137 31.1705 7.26326L31.1694 7.26216Z" fill="#39AE67"/>
</svg>
