<svg width="281" height="321" viewBox="0 0 281 321" fill="none" xmlns="http://www.w3.org/2000/svg">
<path d="M129.491 61.1783C58.0111 61.1783 0 119.189 0 190.669C0 262.149 58.0111 320.16 129.491 320.16C200.97 320.16 258.982 262.149 258.982 190.669V61.1783H129.491Z" fill="#E8491C"/>
<path d="M255.401 54.4805C250.17 45.9967 244.037 37.9684 237.558 30.414C228.801 20.2079 218.959 9.87414 206.73 3.88712C196.342 -1.19773 175.474 -3.41211 170.772 10.8401C169.705 14.0568 170.261 17.6563 171.71 20.7273C175.601 28.9469 184.195 33.5944 191.94 37.5037C211.478 47.3453 233.922 51.528 255.401 54.4805Z" fill="#39AE67"/>
<path d="M259.073 54.6811C262.527 52.3664 265.771 49.6873 268.824 46.8715C272.943 43.0624 277.089 38.7977 279.394 33.6126C281.354 29.2021 281.946 20.4722 275.932 18.7408C274.574 18.3489 273.079 18.6314 271.831 19.2875C268.468 21.0372 266.664 24.6913 265.161 27.981C261.37 36.2735 259.975 45.696 259.082 54.6902L259.073 54.6811Z" fill="#39AE67"/>
<path d="M129.409 93.8604C154.077 93.8604 175.719 104.668 191.94 119.512C196.961 123.85 197.927 129.719 193.589 135.195C188.568 140.681 183.046 139.287 177.797 134.949C165.467 123.987 147.689 118.519 129.418 118.519C89.9054 118.519 59.3051 150.951 59.3051 190.919C59.3051 230.887 89.9054 263.082 129.418 263.082C147.461 263.082 166.424 257.833 178.763 246.871C184.021 242.533 188.796 240.929 193.598 246.415C197.936 251.901 197.252 259.893 192.231 264.23C176.02 279.075 154.095 287.75 129.427 287.75C75.963 287.75 33.7168 244.365 33.7168 190.691C33.7168 137.018 75.963 93.8604 129.409 93.8604Z" fill="white"/>
<path d="M129.464 287.75C104.796 287.75 82.871 279.075 66.6596 264.23C61.6385 259.893 60.946 251.901 65.2927 246.415C70.3138 240.929 73.7948 241.895 79.0437 246.233C91.3731 257.195 111.193 263.091 129.464 263.091C168.976 263.091 199.577 230.659 199.577 190.691C199.577 150.723 168.976 118.528 129.464 118.528C111.421 118.528 92.339 124.962 80.0096 135.915C74.7516 140.253 70.086 140.681 65.2927 135.195C60.9551 129.709 61.6385 121.718 66.6596 117.38C82.8801 102.535 104.805 93.8602 129.464 93.8602C182.901 93.8602 225.156 137.255 225.156 190.919C225.156 244.583 182.91 287.75 129.464 287.75Z" fill="white"/>
</svg>
