<svg xmlns="http://www.w3.org/2000/svg" width="215.325" height="99.231" viewBox="0 0 215.325 99.231">
  <g id="Grupo_1584" data-name="Grupo 1584" transform="translate(1.932 1.932)">
    <path id="Caminho_5376" data-name="Caminho 5376" d="M670.276,292.807c-21.136,0-21.136-25.321-42.275-25.321s-21.149,25.321-42.294,25.321-21.139-25.321-42.278-25.321c-21.155,0-21.155,25.321-42.307,25.321s-21.155-25.321-42.307-25.321" transform="translate(-458.814 -197.439)" fill="none" stroke="#4B4FA1" stroke-linecap="round" stroke-linejoin="round" stroke-width="3.863"/>
    <path id="Caminho_5377" data-name="Caminho 5377" d="M670.276,282.118c-21.136,0-21.136-25.318-42.275-25.318s-21.149,25.318-42.294,25.318S564.568,256.8,543.429,256.8c-21.155,0-21.155,25.318-42.307,25.318S479.966,256.8,458.814,256.8" transform="translate(-458.814 -221.775)" fill="none" stroke="#4B4FA1" stroke-linecap="round" stroke-linejoin="round" stroke-width="3.863"/>
    <path id="Caminho_5378" data-name="Caminho 5378" d="M670.276,271.434c-21.136,0-21.136-25.321-42.275-25.321s-21.149,25.321-42.294,25.321-21.139-25.321-42.278-25.321c-21.155,0-21.155,25.321-42.307,25.321s-21.155-25.321-42.307-25.321" transform="translate(-458.814 -246.113)" fill="none" stroke="#4B4FA1" stroke-linecap="round" stroke-linejoin="round" stroke-width="3.863"/>
  </g>
</svg>
