<svg width="51" height="26" viewBox="0 0 51 26" fill="none" xmlns="http://www.w3.org/2000/svg">
<path d="M0 0C0 14.0761 11.4239 25.5 25.5 25.5C39.5761 25.5 51 14.0761 51 0H0Z" fill="#E8491C"/>
<path d="M5.26868 0.6604C5.26868 11.833 14.3274 20.8917 25.5 20.8917C36.6726 20.8917 45.7313 11.833 45.7313 0.6604H5.26868Z" fill="#F7B8A3"/>
<path d="M28.0984 1.80347H23.8957V23.6624H28.0984V1.80347Z" fill="#E8491C"/>
<path d="M47.8291 0.0610352H3.1709V4.26378H47.8291V0.0610352Z" fill="#E8491C"/>
<path d="M22.538 0.658044L7.83063 18.2854L11.0576 20.9779L25.7651 3.35051L22.538 0.658044Z" fill="#E8491C"/>
<path d="M29.2151 0.872471L25.9881 3.56494L40.2069 20.6067L43.4339 17.9142L29.2151 0.872471Z" fill="#E8491C"/>
</svg>
