<svg width="700" height="700" viewBox="0 0 700 700" fill="none" xmlns="http://www.w3.org/2000/svg">
<rect width="700" height="700" fill="#36357E"/>
<circle cx="463.5" cy="234.5" r="183.5" fill="#5251A2"/>
<path fill-rule="evenodd" clip-rule="evenodd" d="M356.714 476.07C353.733 476.07 349.834 473.592 348.617 472.146C341.026 463.098 347.895 451.479 357.446 451.479C373.526 451.479 374.579 476.07 356.714 476.07ZM193.675 289.006C191.613 290.153 180.061 305.717 178.833 307.442C175.264 312.492 168.808 322.852 166.394 328.522C167.642 328.14 168.808 327.654 170.087 327.437C171.902 327.138 173.201 327.499 174.811 327.293C176.667 328.594 178.967 328.78 180.978 330.691C198.379 347.226 168.096 367.18 158.813 346.576C157.132 348.765 152.985 365.796 152.222 369.649C150.572 378.046 149.375 387.165 149.004 396.275C147.57 430.843 156.678 462.954 173.593 491.108C177.358 497.378 181.546 503.347 185.878 508.677C189.519 513.159 192.118 518.333 188.931 524.84C187.817 527.123 186.827 527.66 185.702 529.271C188.147 532.937 194.181 537.244 197.616 540.653C198.007 541.035 198.111 541.169 198.533 541.551C198.616 541.624 198.853 541.82 198.925 541.892C198.987 541.933 199.08 542.016 199.121 542.057L199.524 542.388C204.774 542.853 210.24 540.405 223.649 544.464C227.321 545.579 230.023 546.829 233.2 548.378C236.387 549.927 239.048 552.045 241.812 553.604C249.466 557.932 262.173 562.61 270.744 565.069C274.581 566.174 278.036 566.783 281.605 567.857C280.811 563.86 280.068 562.249 280.233 557.312C280.563 547.387 286.216 539.517 294.973 535.189C297.634 533.867 300.986 532.999 303.698 531.915C306.741 530.696 309.32 529.467 312.362 528.197C316.612 526.431 324.482 522.206 328.381 519.841C338.881 513.469 345.905 508.46 354.95 500.889L376.208 479.2C384.15 470.297 394.207 453.689 399.127 443.826C424.5 392.949 414.99 357.647 419.858 342.558C421.983 335.958 424.036 333.521 427.924 329.131C428.265 328.749 428.223 328.811 428.574 328.315C429.203 327.448 428.976 327.995 429.121 327.417C433.762 323.977 435.846 321.943 442.591 319.412C450.327 316.51 454.638 317.44 461.683 317.584L461.714 317.688C461.24 314.434 446.304 294.49 441.838 290.277C440.714 289.223 439.476 287.777 438.558 286.61L428.11 276.695C426.872 275.745 425.521 274.516 424.376 273.504C400.168 252.165 359.53 235.62 326.307 235C328.535 237.252 330.67 239.245 331.145 244.048C331.949 252.145 326.359 258.868 318.149 259.251C313.507 259.467 309.217 259.447 304.534 259.87C274.829 262.545 246.413 274.784 225 293.158L219.523 297.899C218.657 298.818 218.605 299.045 217.749 299.747C207.754 308.02 193.552 303.621 193.675 289.006ZM273.529 451.985C289.073 447.678 295.468 471.196 279.883 475.637C264.648 479.985 257.511 456.437 273.529 451.985ZM356.9 370.96C363.387 370.144 369.545 375.97 369.865 382.414C370.216 389.51 364.801 394.994 358.488 395.428C347.122 396.223 341.17 382.259 348.741 374.813L350.433 373.233C350.866 372.881 351.547 372.406 352.207 372.086C354.001 371.219 354.703 371.239 356.9 370.96Z" fill="#FE662E"/>
<path fill-rule="evenodd" clip-rule="evenodd" d="M376.312 185.836C379.717 185.453 381.466 185.257 384.084 183.499C392.157 178.101 390.45 170.656 391.878 161.422C392.996 154.214 397.136 135.953 400.768 130.565C403.666 131.051 409.597 133.853 412.515 135.177C419.553 138.362 427.15 142.798 433.329 147.214L440.408 152.57C440.884 152.973 441.215 153.263 441.567 153.583C442.457 154.411 441.723 153.366 442.509 154.597C444.972 156.003 452.693 164.141 454.825 166.633C467.773 181.772 474.211 192.878 481.6 212.815C491.236 238.79 489.725 269.926 481.228 295.623C478.992 292.221 476.881 289.211 474.449 285.975L467.276 276.741C465.268 275.179 461.004 269.595 458.427 267.351C456.916 266.038 455.281 264.249 453.832 262.801L446.753 256.039C445.852 255.315 445.335 254.829 444.383 254.022C429.872 241.665 411.677 230.063 393.875 222.773L381.052 217.809C369.584 213.363 351.565 209.65 339.001 208.275C309.255 205.028 276.239 208.534 248.512 219.515C227.678 227.778 213.178 235.699 195.366 249.586C191.164 252.854 185.42 257.89 181.611 261.747C178.879 264.508 180.193 262.636 176.312 267.031C175.494 267.961 174.656 268.696 173.756 269.585C170.206 273.132 167.225 276.896 164.089 280.722C162.433 282.749 161.046 284.61 159.483 286.688C156.523 290.638 153.573 294.754 151.017 299.025L143.482 311.93C142.23 314.246 141.216 316.48 140.077 318.744L133.816 333.283C117.37 374.067 117.039 423.516 131.176 465.892C135.275 478.166 138.194 484.133 143.606 495.063C144.776 497.431 145.997 499.323 147.25 501.629C150.903 508.309 164.089 528.443 169.429 531.638C171.737 533.024 174.252 533.541 178.04 533.241C180.845 533.013 183.505 531.193 185.358 529.963C186.486 528.35 187.479 527.812 188.597 525.527C191.795 519.012 189.187 513.831 185.534 509.343C181.187 504.008 176.985 498.031 173.207 491.754C156.233 463.565 147.094 431.416 148.533 396.806C148.906 387.686 150.106 378.555 151.762 370.148C152.528 366.291 156.689 349.239 158.376 347.047C159.162 342.786 164.099 332.497 165.983 328.971C168.405 323.294 174.884 312.923 178.465 307.866C179.696 306.139 191.288 290.556 193.358 289.408C194.621 287.319 200.282 282.521 202.176 280.453C204.236 278.199 206.171 276.927 208.355 274.952C209.628 273.804 210.249 273.297 211.512 272.294C232.894 255.273 255.933 244.333 283.215 238.47C294.01 236.154 315.175 233.765 326.446 235.337C359.783 235.957 400.561 252.523 424.852 273.887C426.001 274.9 427.357 276.131 428.599 277.082L439.083 287.009C440.005 288.177 441.247 289.625 442.375 290.68C446.856 294.899 461.843 314.867 462.319 318.124C464.472 319.696 471.323 334.638 472.865 338.268C482.221 360.283 488.131 390.167 485.72 415.367C482.035 453.876 471.075 478.601 452.942 504.018C448.616 510.078 441.992 517.326 436.993 522.745L431.083 528.163C417.131 540.427 403.263 550.303 385.399 558.027C371.168 564.19 355.312 569.226 337.614 571.191C312.515 573.962 304.774 572.132 281.59 568.595C278.009 567.52 274.542 566.91 270.692 565.803C262.091 563.342 249.34 558.658 241.661 554.325C238.887 552.764 236.217 550.644 233.019 549.093C229.831 547.542 227.119 546.291 223.435 545.174C209.98 541.11 204.494 543.561 199.226 543.095L198.699 543.292C198.336 543.406 198.254 543.426 197.829 543.519C194.227 544.264 190.533 544.636 187.448 547.376C177.802 555.969 183.66 569.919 194.196 571.46C200.479 572.38 204.174 567.706 215.89 571.677C219.491 572.897 218.777 573.073 220.982 574.614C223.259 576.216 234.519 581.883 237.355 583.062C251.835 589.07 257.796 591.355 274.149 595.181C294.31 599.907 312.153 600 333.018 600H335.047H482.563H496.225C501.234 599.493 505.643 597.839 508.127 593.082C512.609 584.489 508.5 574.924 499.268 572.721C494.89 571.687 488.338 572.277 483.287 572.277C461.377 572.277 439.477 572.277 417.566 572.277C417.949 571.946 417.618 572.204 418.197 571.811C418.529 571.594 418.787 571.439 419.098 571.243L429.882 564.149C434.809 560.447 438.338 558.141 443.037 553.953L452.714 545.37C454.505 543.581 456.026 542.051 457.817 540.262L462.929 534.792C464.71 533.055 466.014 531.193 467.68 529.322C470.806 525.826 473.973 521.39 476.767 517.616C478.32 515.527 479.675 513.48 481.093 511.35C492.727 493.967 501.286 474.661 506.947 454.011C509.441 444.89 511.594 433.143 512.536 423.475C513.675 411.645 513.892 405.957 513.23 393.528C512.381 377.769 511.087 368.535 507.02 353.034L504.825 344.648C512.546 342.848 519.522 339.426 526.374 335.889C529.572 334.245 532.656 332.053 535.502 330.057C540.398 326.614 547.932 320.016 551.358 315.611L561.139 302.406C564.161 297.546 566.531 292.221 568.622 286.895C575.194 270.143 576.746 248.014 571.126 228.057C569.533 222.39 566.572 217.416 559.555 216.641C552.197 215.824 547.467 219.433 544.859 224.862C543.751 227.168 543.886 228.377 543.906 231.552C546.494 241.944 548.346 249.7 546.784 261.426C545.542 270.774 542.499 279.636 538.349 286.554C536.185 290.163 534.074 293.637 531.487 296.491C530.607 297.474 530.358 298.011 529.51 298.901C528.858 299.583 528.071 300.193 527.419 300.814C526.653 301.558 526.105 302.323 525.308 303.078C524.5 303.854 523.942 304.05 523.062 304.867C518.808 308.817 507.196 315.828 501.689 316.78C512.919 292.014 515.237 271.446 515.051 244.323C515.061 240.517 514.492 236.495 514.068 233.269C509.524 198.731 496.401 173.52 475.153 148.124C474.128 146.903 473.145 146.262 472.12 144.949C470.505 142.86 463.23 135.963 461.17 134.37C453.584 128.487 452.021 126.243 441.454 119.769C427.688 111.352 414.254 105.168 398.367 101.177C394.507 100.205 392.033 99.388 388.017 100.629C380.762 102.862 379.675 108.664 377.191 114.609C370.785 129.976 368.446 135.994 365.144 152.177C364.316 156.22 362.133 170.066 362.94 174.513C363.457 177.398 365.455 181.048 367.318 182.537C369.253 184.057 372.969 186.198 376.312 185.836Z" fill="black"/>
<path fill-rule="evenodd" clip-rule="evenodd" d="M429.451 327.938C429.306 328.516 429.534 327.969 428.904 328.836C428.552 329.331 428.594 329.269 428.253 329.651C424.357 334.038 422.301 336.473 420.173 343.068C415.296 358.147 424.822 393.424 399.406 444.265C394.477 454.122 384.404 470.718 376.448 479.615L355.154 501.289C346.093 508.854 339.057 513.86 328.539 520.228C324.633 522.591 316.75 526.812 312.493 528.577C309.445 529.847 306.862 531.075 303.814 532.293C301.097 533.377 297.739 534.244 295.073 535.565C286.301 539.889 280.64 547.754 280.309 557.672C280.144 562.606 280.887 564.216 281.683 568.21C304.827 571.74 312.555 573.566 337.61 570.8C355.278 568.839 371.106 563.813 385.313 557.662C403.146 549.952 416.991 540.096 430.918 527.855L436.818 522.447C441.808 517.039 448.421 509.804 452.739 503.755C470.841 478.387 481.783 453.709 485.461 415.274C487.868 390.122 481.969 360.294 472.629 338.321C471.089 334.698 464.249 319.784 462.1 318.216L462.069 318.112C455.012 317.968 450.694 317.039 442.945 319.939C436.188 322.468 434.101 324.501 429.451 327.938Z" fill="#FE4400"/>
<path fill-rule="evenodd" clip-rule="evenodd" d="M376 185.366C376.392 190.867 376.898 197.113 377.713 202.044C378.157 204.768 378.467 207.171 379.065 209.813C379.561 212.029 380.583 215.406 380.727 217.395L393.515 222.367C411.268 229.67 429.413 241.292 443.883 253.671C444.833 254.479 445.349 254.966 446.247 255.691L453.307 262.465C454.752 263.915 456.383 265.707 457.89 267.023C460.46 269.271 464.712 274.864 466.714 276.429C466.157 273.922 454.287 247.155 453.152 244.731C450.706 239.511 448.58 234.342 446.123 229.131C443.687 223.973 441.231 218.773 439.001 213.614C435.905 206.457 426.42 188.246 425.171 182.176C422.9 171.103 429.093 161.335 437.98 155.979C439.466 155.078 440.725 154.798 442.015 154.073C441.231 152.841 441.964 153.887 441.076 153.058C440.725 152.737 440.395 152.447 439.92 152.043L432.86 146.677C426.698 142.254 419.123 137.81 412.104 134.62C409.193 133.294 403.279 130.487 400.389 130C396.767 135.397 392.638 153.69 391.523 160.91C390.099 170.16 391.802 177.618 383.751 183.025C381.14 184.786 379.396 184.983 376 185.366Z" fill="#34E2C5"/>
<path fill-rule="evenodd" clip-rule="evenodd" d="M467.263 276.778L474.41 286.039C476.833 289.285 478.937 292.302 481.164 295.714C489.63 269.944 491.136 238.72 481.535 212.67C474.172 192.676 467.758 181.538 454.858 166.357C452.734 163.857 445.041 155.696 442.586 154.286C441.297 155.012 440.039 155.292 438.554 156.194C429.676 161.555 423.488 171.334 425.757 182.42C427.005 188.497 436.482 206.728 439.575 213.893C441.803 219.058 444.257 224.264 446.691 229.428C449.145 234.644 451.269 239.819 453.713 245.045C454.847 247.472 466.706 274.269 467.263 276.778Z" fill="#006F69"/>
<path fill-rule="evenodd" clip-rule="evenodd" d="M193.144 289.427C193.019 304.019 207.328 308.412 217.397 300.152C218.259 299.451 218.311 299.224 219.184 298.306L224.702 293.573C246.274 275.227 274.901 263.007 304.828 260.336C309.545 259.913 313.868 259.934 318.544 259.717C326.816 259.336 332.448 252.622 331.637 244.538C331.159 239.742 329.008 237.752 326.764 235.504C315.448 233.937 294.198 236.319 283.36 238.629C255.969 244.476 232.838 255.386 211.37 272.36C210.102 273.36 209.479 273.866 208.201 275.01C206.008 276.98 204.065 278.248 201.997 280.497C200.096 282.559 194.412 287.344 193.144 289.427Z" fill="#FEBBA2"/>
<path fill-rule="evenodd" clip-rule="evenodd" d="M515.09 244.272C515.276 271.551 512.955 292.236 501.714 317.143C507.226 316.186 518.85 309.135 523.108 305.163C523.989 304.341 524.549 304.143 525.357 303.363C526.154 302.604 526.703 301.835 527.47 301.086C528.123 300.462 528.91 299.848 529.563 299.162C530.412 298.268 530.661 297.727 531.542 296.739C534.132 293.868 536.245 290.374 538.411 286.745C542.565 279.787 545.611 270.875 546.854 261.473C548.419 249.68 546.564 241.88 543.974 231.429L536.059 233.769C527.657 236.608 522.404 239.374 515.09 244.272Z" fill="#34E2C5"/>
<path fill-rule="evenodd" clip-rule="evenodd" d="M551 585.019C551 590.429 552.353 591.878 555.1 595.526C558.406 599.914 567.968 602.843 573.563 595.63C576.35 592.034 577.53 591.648 578.09 585.916C578.547 581.173 576.004 576.952 572.434 574.086C567.469 570.104 560.267 570.553 555.222 575.733C553.085 577.911 551 580.84 551 585.019Z" fill="black"/>
<path fill-rule="evenodd" clip-rule="evenodd" d="M165.834 329.077C163.93 332.573 158.938 342.773 158.143 346.997C167.561 367.449 198.283 347.643 180.63 331.23C178.59 329.333 176.256 329.149 174.373 327.857C172.74 328.062 171.422 327.703 169.58 328C168.283 328.216 167.1 328.698 165.834 329.077Z" fill="#FEBBA2"/>
<path fill-rule="evenodd" clip-rule="evenodd" d="M273.152 452.673C256.739 457.177 264.052 481.003 279.663 476.604C295.632 472.11 289.079 448.316 273.152 452.673Z" fill="#FE4400"/>
<path fill-rule="evenodd" clip-rule="evenodd" d="M356.94 477.143C374.171 477.143 373.156 452.143 357.647 452.143C348.434 452.143 341.809 463.955 349.131 473.153C350.305 474.623 354.065 477.143 356.94 477.143Z" fill="#FE4400"/>
<path fill-rule="evenodd" clip-rule="evenodd" d="M357.094 370.792C354.983 371.076 354.309 371.055 352.584 371.937C351.949 372.263 351.295 372.746 350.878 373.104L349.253 374.711C341.976 382.286 347.696 396.49 358.621 395.681C364.688 395.24 369.893 389.661 369.556 382.444C369.249 375.888 363.33 369.962 357.094 370.792Z" fill="#FE4400"/>
</svg>
