<svg xmlns="http://www.w3.org/2000/svg" width="117.305" height="111.711" viewBox="0 0 117.305 111.711">
  <g id="Grupo_1582" data-name="Grupo 1582" transform="translate(0 0)">
    <g id="Grupo_1576" data-name="Grupo 1576" transform="translate(0 105.947)">
      <circle id="Elipse_97" data-name="Elipse 97" cx="2.882" cy="2.882" r="2.882" transform="translate(111.541)" fill="#ff7b42"/>
      <circle id="Elipse_98" data-name="Elipse 98" cx="2.882" cy="2.882" r="2.882" transform="translate(83.656)" fill="#ff7b42"/>
      <circle id="Elipse_99" data-name="Elipse 99" cx="2.882" cy="2.882" r="2.882" transform="translate(55.771)" fill="#ff7b42"/>
      <path id="Caminho_5366" data-name="Caminho 5366" d="M465.55,208.4a2.881,2.881,0,1,1,2.881,2.881A2.879,2.879,0,0,1,465.55,208.4Z" transform="translate(-437.664 -205.522)" fill="#ff7b42"/>
      <circle id="Elipse_100" data-name="Elipse 100" cx="2.882" cy="2.882" r="2.882" fill="#ff7b42"/>
    </g>
    <g id="Grupo_1577" data-name="Grupo 1577" transform="translate(0 84.758)">
      <circle id="Elipse_101" data-name="Elipse 101" cx="2.882" cy="2.882" r="2.882" transform="translate(111.541 0)" fill="#ff7b42"/>
      <circle id="Elipse_102" data-name="Elipse 102" cx="2.882" cy="2.882" r="2.882" transform="translate(83.656 0)" fill="#ff7b42"/>
      <circle id="Elipse_103" data-name="Elipse 103" cx="2.882" cy="2.882" r="2.882" transform="translate(55.771 0)" fill="#ff7b42"/>
      <path id="Caminho_5367" data-name="Caminho 5367" d="M465.55,201.939a2.881,2.881,0,1,1,2.881,2.884A2.881,2.881,0,0,1,465.55,201.939Z" transform="translate(-437.664 -199.058)" fill="#ff7b42"/>
      <circle id="Elipse_104" data-name="Elipse 104" cx="2.882" cy="2.882" r="2.882" transform="translate(0 0)" fill="#ff7b42"/>
    </g>
    <g id="Grupo_1578" data-name="Grupo 1578" transform="translate(0 63.568)">
      <circle id="Elipse_105" data-name="Elipse 105" cx="2.882" cy="2.882" r="2.882" transform="translate(111.541)" fill="#ff7b42"/>
      <circle id="Elipse_106" data-name="Elipse 106" cx="2.882" cy="2.882" r="2.882" transform="translate(83.656)" fill="#ff7b42"/>
      <circle id="Elipse_107" data-name="Elipse 107" cx="2.882" cy="2.882" r="2.882" transform="translate(55.771)" fill="#ff7b42"/>
      <path id="Caminho_5368" data-name="Caminho 5368" d="M465.55,195.474a2.881,2.881,0,1,1,2.881,2.881A2.879,2.879,0,0,1,465.55,195.474Z" transform="translate(-437.664 -192.592)" fill="#ff7b42"/>
      <circle id="Elipse_108" data-name="Elipse 108" cx="2.882" cy="2.882" r="2.882" fill="#ff7b42"/>
    </g>
    <g id="Grupo_1579" data-name="Grupo 1579" transform="translate(0 42.378)">
      <circle id="Elipse_109" data-name="Elipse 109" cx="2.882" cy="2.882" r="2.882" transform="translate(111.541 0.001)" fill="#ff7b42"/>
      <circle id="Elipse_110" data-name="Elipse 110" cx="2.882" cy="2.882" r="2.882" transform="translate(83.656 0.001)" fill="#ff7b42"/>
      <circle id="Elipse_111" data-name="Elipse 111" cx="2.882" cy="2.882" r="2.882" transform="translate(55.771 0.001)" fill="#ff7b42"/>
      <path id="Caminho_5369" data-name="Caminho 5369" d="M465.55,189.011a2.881,2.881,0,1,1,2.881,2.881A2.881,2.881,0,0,1,465.55,189.011Z" transform="translate(-437.664 -186.127)" fill="#ff7b42"/>
      <circle id="Elipse_112" data-name="Elipse 112" cx="2.882" cy="2.882" r="2.882" transform="translate(0 0.001)" fill="#ff7b42"/>
    </g>
    <g id="Grupo_1580" data-name="Grupo 1580" transform="translate(0 21.189)">
      <circle id="Elipse_113" data-name="Elipse 113" cx="2.882" cy="2.882" r="2.882" transform="translate(111.541)" fill="#ff7b42"/>
      <circle id="Elipse_114" data-name="Elipse 114" cx="2.882" cy="2.882" r="2.882" transform="translate(83.656)" fill="#ff7b42"/>
      <circle id="Elipse_115" data-name="Elipse 115" cx="2.882" cy="2.882" r="2.882" transform="translate(55.771)" fill="#ff7b42"/>
      <path id="Caminho_5370" data-name="Caminho 5370" d="M465.55,182.543a2.881,2.881,0,1,1,2.881,2.884A2.881,2.881,0,0,1,465.55,182.543Z" transform="translate(-437.664 -179.662)" fill="#ff7b42"/>
      <circle id="Elipse_116" data-name="Elipse 116" cx="2.882" cy="2.882" r="2.882" fill="#ff7b42"/>
    </g>
    <g id="Grupo_1581" data-name="Grupo 1581">
      <circle id="Elipse_117" data-name="Elipse 117" cx="2.882" cy="2.882" r="2.882" transform="translate(111.541)" fill="#ff7b42"/>
      <circle id="Elipse_118" data-name="Elipse 118" cx="2.882" cy="2.882" r="2.882" transform="translate(83.656)" fill="#ff7b42"/>
      <circle id="Elipse_119" data-name="Elipse 119" cx="2.882" cy="2.882" r="2.882" transform="translate(55.771)" fill="#ff7b42"/>
      <path id="Caminho_5371" data-name="Caminho 5371" d="M465.55,176.078a2.881,2.881,0,1,1,2.881,2.881A2.879,2.879,0,0,1,465.55,176.078Z" transform="translate(-437.664 -173.195)" fill="#ff7b42"/>
      <circle id="Elipse_120" data-name="Elipse 120" cx="2.882" cy="2.882" r="2.882" fill="#ff7b42"/>
    </g>
  </g>
</svg>
