<svg width="21" height="20" viewBox="0 0 21 20" fill="none" xmlns="http://www.w3.org/2000/svg">
<path d="M8.65903 17.105C10.5567 17.1046 12.3997 16.4694 13.8945 15.3004L18.5943 20L20.1061 18.4883L15.4062 13.7888C16.5759 12.2938 17.2115 10.4505 17.212 8.55249C17.212 3.83686 13.3749 0 8.65903 0C3.94315 0 0.106079 3.83686 0.106079 8.55249C0.106079 13.2681 3.94315 17.105 8.65903 17.105ZM8.65903 2.13812C12.1967 2.13812 15.0737 5.01497 15.0737 8.55249C15.0737 12.09 12.1967 14.9669 8.65903 14.9669C5.12131 14.9669 2.24432 12.09 2.24432 8.55249C2.24432 5.01497 5.12131 2.13812 8.65903 2.13812Z" fill="white"/>
</svg>
