<svg width="122" height="46" viewBox="0 0 122 46" fill="none" xmlns="http://www.w3.org/2000/svg">
<path d="M15.5792 9.04468C6.97941 9.04468 0 16.0241 0 24.6239C0 33.2237 6.97941 40.2031 15.5792 40.2031C24.1791 40.2031 31.1585 33.2237 31.1585 24.6239V9.04468H15.5792Z" fill="#ED4821"/>
<path d="M30.7277 8.23897C30.0984 7.21826 29.3606 6.25237 28.5811 5.34349C27.5275 4.11557 26.3434 2.8723 24.8721 2.15199C23.6223 1.54022 21.1116 1.27381 20.5459 2.98851C20.4176 3.37553 20.4845 3.80859 20.6588 4.17806C21.127 5.16697 22.1608 5.72612 23.0927 6.19645C25.4433 7.38052 28.1436 7.88375 30.7277 8.23897Z" fill="#39AE67"/>
<path d="M31.1694 8.26216C31.5849 7.98374 31.9751 7.66148 32.3423 7.32277C32.8378 6.86459 33.3365 6.3516 33.6138 5.7279C33.8495 5.19737 33.9207 4.14727 33.1973 3.93901C33.034 3.89187 32.8542 3.92585 32.704 4.00478C32.2995 4.21523 32.0825 4.65478 31.9017 5.05049C31.4457 6.04797 31.278 7.18137 31.1705 8.26326L31.1694 8.26216Z" fill="#39AE67"/>
<path d="M47.3462 35.2429C44.7199 35.2429 42.2591 34.7466 39.9637 33.754C39.7155 33.6506 39.5087 33.4852 39.3433 33.2577C39.1779 33.0096 39.0951 32.7511 39.0951 32.4822C39.0951 32.1307 39.2089 31.8308 39.4363 31.5827C39.6845 31.3138 39.9947 31.1794 40.3669 31.1794C40.5737 31.1794 40.7702 31.2208 40.9563 31.3035C42.8588 32.1514 44.8957 32.5753 47.0671 32.5753C50.6859 32.5753 52.4954 31.3862 52.4954 29.0081C52.4954 28.3877 52.2576 27.8707 51.782 27.4571C51.327 27.0435 50.7583 26.723 50.0759 26.4955C49.3935 26.2474 48.4216 25.9579 47.1601 25.627C45.4851 25.1927 44.1306 24.7791 43.0966 24.3862C42.0626 23.9726 41.1734 23.3626 40.429 22.5561C39.6845 21.7496 39.3123 20.6743 39.3123 19.3301C39.3123 18.1514 39.6225 17.0864 40.2428 16.1351C40.8632 15.1632 41.7731 14.3981 42.9725 13.8397C44.1926 13.2607 45.6505 12.9712 47.3462 12.9712C49.621 12.9712 51.6786 13.3124 53.519 13.9948C54.0981 14.2016 54.3876 14.6152 54.3876 15.2356C54.3876 15.5665 54.2738 15.8663 54.0464 16.1351C53.8189 16.404 53.519 16.5384 53.1468 16.5384C53.0227 16.5384 52.8573 16.497 52.6505 16.4143C51.0375 15.856 49.3728 15.5768 47.6564 15.5768C46.0227 15.5768 44.6889 15.887 43.6549 16.5074C42.6417 17.1278 42.135 17.9963 42.135 19.113C42.135 19.8574 42.3728 20.4675 42.8485 20.9431C43.3448 21.3981 43.9548 21.76 44.6786 22.0288C45.423 22.2769 46.426 22.5458 47.6874 22.8353C49.3211 23.2282 50.6343 23.6211 51.6269 24.014C52.6402 24.4069 53.4984 25.017 54.2015 25.8441C54.9252 26.6713 55.2871 27.788 55.2871 29.1942C55.2871 30.3522 54.9562 31.3966 54.2945 32.3271C53.6328 33.237 52.7022 33.9505 51.5028 34.4675C50.3034 34.9844 48.9179 35.2429 47.3462 35.2429ZM60.2315 35.0878C59.8386 35.0878 59.5077 34.9534 59.2389 34.6846C58.9701 34.4158 58.8357 34.0849 58.8357 33.692V13.5606C58.8357 13.1677 58.9701 12.8368 59.2389 12.5679C59.5077 12.2784 59.8386 12.1337 60.2315 12.1337C60.6244 12.1337 60.9553 12.2784 61.2241 12.5679C61.5136 12.8368 61.6584 13.1677 61.6584 13.5606V21.6566C62.4442 20.788 63.2921 20.0953 64.202 19.5783C65.1119 19.0613 66.1872 18.8028 67.428 18.8028C68.5653 18.8028 69.5476 19.0716 70.3748 19.6093C71.2226 20.147 71.8637 20.8811 72.298 21.8116C72.7529 22.7422 72.9804 23.7659 72.9804 24.8825V33.692C72.9804 34.0849 72.8356 34.4158 72.5461 34.6846C72.2773 34.9534 71.9464 35.0878 71.5535 35.0878C71.1606 35.0878 70.8297 34.9534 70.5609 34.6846C70.2921 34.4158 70.1576 34.0849 70.1576 33.692V25.1927C70.1576 22.6698 69.0203 21.4084 66.7455 21.4084C65.7116 21.4084 64.781 21.6772 63.9538 22.2149C63.1473 22.7526 62.3822 23.4763 61.6584 24.3862V33.692C61.6584 34.0849 61.5136 34.4158 61.2241 34.6846C60.9553 34.9534 60.6244 35.0878 60.2315 35.0878ZM81.7704 35.2429C80.8605 35.2429 80.0127 35.0568 79.2269 34.6846C78.4617 34.3124 77.8517 33.7747 77.3967 33.0716C76.9418 32.3478 76.7143 31.5206 76.7143 30.5901C76.7143 29.0598 77.314 27.8397 78.5134 26.9298C79.7335 26.0199 81.5119 25.565 83.8487 25.565H87.602V25.3168C87.602 23.952 87.2608 22.9697 86.5784 22.37C85.9166 21.7703 84.8723 21.4704 83.4455 21.4704C82.6596 21.4704 81.9565 21.5325 81.3362 21.6566C80.7365 21.7806 80.0644 21.9667 79.3199 22.2149C79.1545 22.2563 79.0201 22.2769 78.9167 22.2769C78.6065 22.2769 78.3376 22.1632 78.1102 21.9357C77.8827 21.7083 77.769 21.4291 77.769 21.0982C77.769 20.5399 78.0378 20.147 78.5755 19.9195C80.3332 19.175 82.122 18.8028 83.9418 18.8028C85.3686 18.8028 86.568 19.0923 87.54 19.6713C88.5326 20.2504 89.2564 21.0052 89.7113 21.9357C90.1869 22.8456 90.4248 23.8382 90.4248 24.9136V33.692C90.4248 34.0849 90.28 34.4158 89.9905 34.6846C89.7217 34.9534 89.3908 35.0878 88.9979 35.0878C88.605 35.0878 88.2741 34.9534 88.0053 34.6846C87.7364 34.4158 87.602 34.0849 87.602 33.692V32.8855C86.0717 34.4571 84.1279 35.2429 81.7704 35.2429ZM82.8251 32.7614C83.735 32.7614 84.6138 32.5443 85.4617 32.11C86.3096 31.6551 87.023 31.0967 87.602 30.435V27.8294H84.2209C81.0983 27.8294 79.537 28.6462 79.537 30.2799C79.537 31.0243 79.7852 31.624 80.2815 32.079C80.7985 32.5339 81.6463 32.7614 82.8251 32.7614ZM96.5518 35.0878C96.1589 35.0878 95.828 34.9534 95.5592 34.6846C95.2903 34.4158 95.1559 34.0849 95.1559 33.692L95.1559 20.3848C95.1559 19.9919 95.2903 19.661 95.5592 19.3922C95.828 19.1026 96.1589 18.9579 96.5518 18.9579C96.9447 18.9579 97.2755 19.1026 97.5444 19.3922C97.8339 19.661 97.9786 19.9919 97.9786 20.3848V21.7186C99.4262 19.7747 101.05 18.8028 102.849 18.8028H103.004C103.397 18.8028 103.717 18.9372 103.965 19.206C104.234 19.4749 104.369 19.8057 104.369 20.1987C104.369 20.5916 104.234 20.9121 103.965 21.1602C103.697 21.4084 103.355 21.5325 102.942 21.5325H102.787C101.794 21.5325 100.884 21.7806 100.057 22.2769C99.2297 22.7526 98.537 23.4143 97.9786 24.2622V33.692C97.9786 34.0849 97.8339 34.4158 97.5444 34.6846C97.2755 34.9534 96.9447 35.0878 96.5518 35.0878ZM113.648 35.2429C111.126 35.2429 109.151 34.5295 107.724 33.1026C106.318 31.6551 105.614 29.6285 105.614 27.0229C105.614 25.5546 105.883 24.2001 106.421 22.9594C106.959 21.7186 107.786 20.7156 108.902 19.9505C110.019 19.1854 111.394 18.8028 113.028 18.8028C114.558 18.8028 115.882 19.1647 116.998 19.8885C118.115 20.5916 118.963 21.5428 119.542 22.7422C120.121 23.9209 120.411 25.2134 120.411 26.6196C120.411 27.0125 120.276 27.3434 120.007 27.6122C119.759 27.8811 119.418 28.0155 118.984 28.0155L108.468 28.0155C108.634 29.463 109.171 30.5901 110.081 31.3966C110.991 32.2031 112.263 32.6063 113.897 32.6063C114.765 32.6063 115.52 32.5236 116.161 32.3582C116.823 32.1927 117.464 31.9549 118.084 31.6447C118.25 31.562 118.436 31.5206 118.642 31.5206C118.973 31.5206 119.263 31.6344 119.511 31.8618C119.759 32.0893 119.883 32.3788 119.883 32.7304C119.883 33.1853 119.614 33.5679 119.077 33.8781C118.27 34.333 117.474 34.6742 116.688 34.9017C115.902 35.1292 114.889 35.2429 113.648 35.2429ZM117.619 25.7201C117.557 24.7068 117.288 23.8589 116.812 23.1765C116.357 22.4941 115.789 21.9978 115.106 21.6876C114.424 21.3567 113.731 21.1913 113.028 21.1913C112.325 21.1913 111.632 21.3567 110.95 21.6876C110.267 21.9978 109.699 22.4941 109.244 23.1765C108.789 23.8589 108.53 24.7068 108.468 25.7201L117.619 25.7201Z" fill="#ED4821"/>
<path d="M78.3232 13.1366C77.3673 13.1366 76.5298 12.9272 75.8106 12.5084C75.0914 12.0896 74.536 11.5115 74.1446 10.7741C73.7531 10.0367 73.5483 9.19007 73.5301 8.23418C73.5483 7.27828 73.7531 6.43163 74.1446 5.69423C74.536 4.95682 75.0914 4.37873 75.8106 3.95996C76.5298 3.54119 77.3673 3.3318 78.3232 3.3318C79.2791 3.3318 80.1121 3.54119 80.8222 3.95996C81.5414 4.37873 82.0967 4.96137 82.4882 5.70788C82.8887 6.44529 83.0981 7.28739 83.1163 8.23418C83.0981 9.18097 82.8887 10.0276 82.4882 10.7741C82.0967 11.5115 81.5414 12.0896 80.8222 12.5084C80.1121 12.9272 79.2791 13.1366 78.3232 13.1366ZM78.3232 11.9758C79.0515 11.9758 79.6842 11.812 80.2213 11.4842C80.7585 11.1565 81.1681 10.7104 81.4504 10.146C81.7326 9.58154 81.8737 8.94427 81.8737 8.23418C81.8737 7.52408 81.7326 6.88682 81.4504 6.32239C81.1681 5.75795 80.7585 5.31187 80.2213 4.98413C79.6842 4.6564 79.0515 4.49253 78.3232 4.49253C77.5858 4.49253 76.9485 4.6564 76.4114 4.98413C75.8834 5.31187 75.4783 5.75795 75.1961 6.32239C74.9138 6.88682 74.7727 7.52408 74.7727 8.23418C74.7727 8.94427 74.9138 9.58154 75.1961 10.146C75.4783 10.7104 75.8834 11.1565 76.4114 11.4842C76.9485 11.812 77.5858 11.9758 78.3232 11.9758ZM85.4342 13.0683C85.2612 13.0683 85.1155 13.0091 84.9972 12.8908C84.8788 12.7724 84.8197 12.6267 84.8197 12.4538V6.5955C84.8197 6.42253 84.8788 6.27687 84.9972 6.15852C85.1155 6.03107 85.2612 5.96734 85.4342 5.96734C85.6071 5.96734 85.7528 6.03107 85.8712 6.15852C85.9986 6.27687 86.0623 6.42253 86.0623 6.5955V7.18269C86.6996 6.32694 87.4142 5.89906 88.2063 5.89906H88.2746C88.4475 5.89906 88.5886 5.95824 88.6979 6.07658C88.8162 6.19493 88.8754 6.34059 88.8754 6.51357C88.8754 6.68654 88.8162 6.82765 88.6979 6.93689C88.5795 7.04614 88.4293 7.10076 88.2472 7.10076H88.179C87.742 7.10076 87.3414 7.21 86.9773 7.42849C86.6131 7.63788 86.3081 7.9292 86.0623 8.30246V12.4538C86.0623 12.6267 85.9986 12.7724 85.8712 12.8908C85.7528 13.0091 85.6071 13.0683 85.4342 13.0683ZM91.8225 13.1366C91.4219 13.1366 91.0486 13.0546 90.7027 12.8908C90.3659 12.7269 90.0973 12.4902 89.897 12.1807C89.6967 11.862 89.5966 11.4979 89.5966 11.0882C89.5966 10.4145 89.8606 9.87741 90.3886 9.47684C90.9257 9.07628 91.7087 8.87599 92.7374 8.87599H94.3897V8.76675C94.3897 8.1659 94.2395 7.73347 93.9391 7.46946C93.6478 7.20545 93.188 7.07345 92.5599 7.07345C92.2139 7.07345 91.9044 7.10076 91.6313 7.15538C91.3673 7.21 91.0714 7.29194 90.7437 7.40118C90.6708 7.41939 90.6117 7.42849 90.5661 7.42849C90.4296 7.42849 90.3112 7.37842 90.2111 7.27828C90.111 7.17814 90.0609 7.05524 90.0609 6.90958C90.0609 6.66378 90.1792 6.49081 90.4159 6.39066C91.1897 6.06293 91.9772 5.89906 92.7784 5.89906C93.4065 5.89906 93.9345 6.02651 94.3624 6.28142C94.7994 6.53632 95.118 6.86861 95.3183 7.27828C95.5277 7.67885 95.6324 8.11583 95.6324 8.58922V12.4538C95.6324 12.6267 95.5687 12.7724 95.4412 12.8908C95.3229 13.0091 95.1772 13.0683 95.0042 13.0683C94.8313 13.0683 94.6856 13.0091 94.5672 12.8908C94.4489 12.7724 94.3897 12.6267 94.3897 12.4538V12.0987C93.716 12.7906 92.8603 13.1366 91.8225 13.1366ZM92.2868 12.0441C92.6873 12.0441 93.0742 11.9485 93.4475 11.7573C93.8207 11.5571 94.1348 11.3113 94.3897 11.0199V9.87286H92.9013C91.5266 9.87286 90.8393 10.2325 90.8393 10.9517C90.8393 11.2794 90.9485 11.5434 91.167 11.7437C91.3946 11.944 91.7678 12.0441 92.2868 12.0441ZM98.3297 13.0683C98.1567 13.0683 98.0111 13.0091 97.8927 12.8908C97.7744 12.7724 97.7152 12.6267 97.7152 12.4538V6.5955C97.7152 6.42253 97.7744 6.27687 97.8927 6.15852C98.0111 6.03107 98.1567 5.96734 98.3297 5.96734C98.5027 5.96734 98.6483 6.03107 98.7667 6.15852C98.8941 6.27687 98.9579 6.42253 98.9579 6.5955V7.15538C99.3038 6.77302 99.6771 6.46805 100.078 6.24045C100.478 6.01286 100.952 5.89906 101.498 5.89906C101.999 5.89906 102.431 6.01741 102.795 6.25411C103.168 6.49081 103.451 6.81399 103.642 7.22366C103.842 7.63333 103.942 8.08397 103.942 8.57557V12.4538C103.942 12.6267 103.878 12.7724 103.751 12.8908C103.633 13.0091 103.487 13.0683 103.314 13.0683C103.141 13.0683 102.995 13.0091 102.877 12.8908C102.759 12.7724 102.7 12.6267 102.7 12.4538V8.71213C102.7 7.60147 102.199 7.04614 101.197 7.04614C100.742 7.04614 100.333 7.16448 99.9684 7.40118C99.6133 7.63788 99.2765 7.95651 98.9579 8.35708V12.4538C98.9579 12.6267 98.8941 12.7724 98.7667 12.8908C98.6483 13.0091 98.5027 13.0683 98.3297 13.0683ZM109.287 16.2774C108.759 16.2774 108.226 16.2091 107.689 16.0725C107.152 15.936 106.71 15.7675 106.364 15.5673C106.2 15.4671 106.119 15.3078 106.119 15.0893C106.119 14.9437 106.169 14.8116 106.269 14.6933C106.378 14.5841 106.51 14.5294 106.665 14.5294C106.738 14.5294 106.82 14.5476 106.911 14.5841C107.602 14.93 108.354 15.103 109.164 15.103C110.557 15.103 111.253 14.361 111.253 12.8771V11.9622C110.607 12.6541 109.828 13 108.918 13C108.381 13 107.857 12.868 107.348 12.604C106.847 12.3309 106.433 11.9303 106.105 11.4023C105.777 10.8652 105.613 10.2142 105.613 9.44953C105.613 8.68481 105.777 8.03845 106.105 7.51043C106.433 6.97331 106.847 6.57274 107.348 6.30873C107.857 6.03562 108.381 5.89906 108.918 5.89906C109.828 5.89906 110.607 6.245 111.253 6.93689V6.5955C111.253 6.42253 111.312 6.27687 111.431 6.15852C111.549 6.03107 111.695 5.96734 111.868 5.96734C112.041 5.96734 112.186 6.03107 112.305 6.15852C112.432 6.27687 112.496 6.42253 112.496 6.5955V12.6996C112.496 13.8467 112.218 14.7297 111.663 15.3488C111.107 15.9678 110.315 16.2774 109.287 16.2774ZM109.177 11.8666C109.605 11.8666 109.983 11.7755 110.311 11.5935C110.639 11.4114 110.953 11.1656 111.253 10.8561V8.043C110.953 7.73347 110.639 7.48767 110.311 7.30559C109.983 7.12352 109.605 7.03248 109.177 7.03248C108.495 7.03248 107.935 7.24187 107.498 7.66064C107.07 8.07031 106.856 8.66661 106.856 9.44953C106.856 10.2325 107.07 10.8333 107.498 11.2521C107.935 11.6617 108.495 11.8666 109.177 11.8666ZM117.765 13.1366C116.654 13.1366 115.785 12.8225 115.157 12.1943C114.538 11.5571 114.228 10.6649 114.228 9.51781C114.228 8.87144 114.346 8.27514 114.583 7.72892C114.82 7.18269 115.184 6.74116 115.676 6.40432C116.167 6.06748 116.773 5.89906 117.492 5.89906C118.165 5.89906 118.748 6.05838 119.24 6.37701C119.731 6.68654 120.105 7.10531 120.359 7.63333C120.614 8.15224 120.742 8.72123 120.742 9.34029C120.742 9.51326 120.683 9.65892 120.564 9.77727C120.455 9.89562 120.305 9.95479 120.114 9.95479H115.484C115.557 10.5921 115.794 11.0882 116.194 11.4433C116.595 11.7983 117.155 11.9758 117.874 11.9758C118.256 11.9758 118.589 11.9394 118.871 11.8666C119.162 11.7938 119.445 11.6891 119.718 11.5525C119.79 11.5161 119.872 11.4979 119.963 11.4979C120.109 11.4979 120.237 11.5479 120.346 11.6481C120.455 11.7482 120.51 11.8757 120.51 12.0304C120.51 12.2307 120.391 12.3992 120.155 12.5357C119.8 12.736 119.449 12.8862 119.103 12.9863C118.757 13.0865 118.311 13.1366 117.765 13.1366ZM119.513 8.94427C119.486 8.49819 119.367 8.12493 119.158 7.82451C118.957 7.52408 118.707 7.30559 118.407 7.16904C118.106 7.02338 117.801 6.95055 117.492 6.95055C117.182 6.95055 116.877 7.02338 116.577 7.16904C116.276 7.30559 116.026 7.52408 115.826 7.82451C115.626 8.12493 115.512 8.49819 115.484 8.94427H119.513Z" fill="#ED4821" fill-opacity="0.5"/>
</svg>
