<svg width="139" height="47" viewBox="0 0 139 47" fill="none" xmlns="http://www.w3.org/2000/svg">
<path d="M17.6608 8.34399C7.91192 8.34399 0 16.2559 0 26.0048C0 35.7536 7.91192 43.6655 17.6608 43.6655C27.4096 43.6655 35.3215 35.7536 35.3215 26.0048V8.34399H17.6608Z" fill="#E8491C"/>
<path d="M34.8331 7.4304C34.1198 6.27331 33.2833 5.17837 32.3997 4.14806C31.2053 2.75608 29.863 1.3467 28.1951 0.53015C26.7783 -0.163354 23.9322 -0.465365 23.2909 1.47844C23.1455 1.91716 23.2213 2.40808 23.4189 2.82692C23.9496 3.94796 25.1216 4.58181 26.178 5.11499C28.8427 6.45726 31.9038 7.02772 34.8331 7.4304Z" fill="#39AE67"/>
<path d="M35.3344 7.45754C35.8054 7.14186 36.2479 6.77647 36.6643 6.39243C37.226 5.87292 37.7915 5.29127 38.1059 4.5841C38.3732 3.98256 38.4539 2.79192 37.6337 2.55578C37.4485 2.50234 37.2447 2.54087 37.0744 2.63035C36.6158 2.86898 36.3697 3.36736 36.1646 3.81602C35.6476 4.94701 35.4575 6.2321 35.3357 7.45879L35.3344 7.45754Z" fill="#39AE67"/>
<path d="M17.6495 12.8013C21.0139 12.8013 23.9656 14.2753 26.1779 16.2999C26.8627 16.8915 26.9944 17.6918 26.4028 18.4388C25.718 19.187 24.9649 18.9968 24.249 18.4052C22.5674 16.9101 20.1427 16.1644 17.6508 16.1644C12.2618 16.1644 8.08835 20.5877 8.08835 26.0388C8.08835 31.4899 12.2618 35.8808 17.6508 35.8808C20.1116 35.8808 22.6979 35.1649 24.3807 33.6698C25.0979 33.0782 25.7491 32.8595 26.4041 33.6077C26.9957 34.3559 26.9025 35.4458 26.2177 36.0374C24.0066 38.062 21.0164 39.2452 17.652 39.2452C10.3603 39.2452 4.59845 33.328 4.59845 26.0077C4.59845 18.6874 10.3603 12.8013 17.6495 12.8013Z" fill="white"/>
<path d="M17.6577 39.2452C14.2933 39.2452 11.303 38.062 9.09202 36.0374C8.40721 35.4458 8.31276 34.3559 8.90559 33.6077C9.5904 32.8595 10.0652 32.9912 10.781 33.5828C12.4626 35.0779 15.1658 35.8821 17.6577 35.8821C23.0466 35.8821 27.2201 31.4588 27.2201 26.0077C27.2201 20.5566 23.0466 16.1656 17.6577 16.1656C15.1968 16.1656 12.5943 17.0431 10.9128 18.537C10.1957 19.1286 9.55933 19.187 8.90559 18.4388C8.314 17.6906 8.40721 16.6006 9.09202 16.009C11.3043 13.9845 14.2945 12.8013 17.6577 12.8013C24.9457 12.8013 30.7087 18.7197 30.7087 26.0388C30.7087 33.3579 24.9469 39.2452 17.6577 39.2452Z" fill="white"/>
<path d="M53.2437 35.3516C50.2665 35.3516 47.4768 34.789 44.8747 33.6638C44.5934 33.5466 44.359 33.359 44.1715 33.1012C43.9839 32.8199 43.8901 32.5268 43.8901 32.2221C43.8901 31.8236 44.0191 31.4836 44.2769 31.2023C44.5583 30.8976 44.9099 30.7452 45.3318 30.7452C45.5663 30.7452 45.789 30.7921 46 30.8859C48.1567 31.847 50.4657 32.3276 52.9272 32.3276C57.0296 32.3276 59.0808 30.9796 59.0808 28.2838C59.0808 27.5805 58.8112 26.9944 58.272 26.5256C57.7563 26.0567 57.1116 25.6934 56.338 25.4355C55.5644 25.1542 54.4627 24.826 53.0327 24.4509C51.1338 23.9586 49.5984 23.4898 48.4262 23.0444C47.2541 22.5755 46.2461 21.884 45.4022 20.9697C44.5583 20.0555 44.1363 18.8365 44.1363 17.3127C44.1363 15.9765 44.4879 14.7692 45.1912 13.6909C45.8945 12.5891 46.9259 11.7217 48.2856 11.0888C49.6687 10.4324 51.3214 10.1042 53.2437 10.1042C55.8223 10.1042 58.1548 10.491 60.2412 11.2646C60.8976 11.499 61.2258 11.9679 61.2258 12.6711C61.2258 13.0462 61.0968 13.3861 60.839 13.6909C60.5811 13.9956 60.2412 14.148 59.8192 14.148C59.6786 14.148 59.491 14.1011 59.2566 14.0074C57.4281 13.3744 55.541 13.0579 53.5953 13.0579C51.7433 13.0579 50.2313 13.4096 49.0592 14.1128C47.9105 14.8161 47.3362 15.8007 47.3362 17.0666C47.3362 17.9105 47.6058 18.6021 48.1449 19.1412C48.7076 19.657 49.3991 20.0672 50.2196 20.372C51.0635 20.6533 52.2005 20.958 53.6305 21.2862C55.4824 21.7316 56.971 22.177 58.0962 22.6224C59.2449 23.0678 60.2178 23.7594 61.0148 24.6971C61.8353 25.6348 62.2455 26.9007 62.2455 28.4947C62.2455 29.8075 61.8704 30.9914 61.1203 32.0463C60.3701 33.0777 59.3152 33.8865 57.9556 34.4725C56.5959 35.0586 55.0253 35.3516 53.2437 35.3516ZM67.8505 35.1758C67.4051 35.1758 67.0301 35.0234 66.7253 34.7187C66.4206 34.4139 66.2682 34.0389 66.2682 33.5935V10.7723C66.2682 10.3269 66.4206 9.95182 66.7253 9.64707C67.0301 9.31888 67.4051 9.15478 67.8505 9.15478C68.2959 9.15478 68.671 9.31888 68.9758 9.64707C69.304 9.95182 69.4681 10.3269 69.4681 10.7723V19.95C70.3589 18.9654 71.32 18.1801 72.3515 17.594C73.3829 17.008 74.6019 16.7149 76.0085 16.7149C77.2978 16.7149 78.4113 17.0197 79.349 17.6292C80.3102 18.2387 81.0369 19.0709 81.5292 20.1258C82.0449 21.1807 82.3028 22.3411 82.3028 23.607V33.5935C82.3028 34.0389 82.1387 34.4139 81.8105 34.7187C81.5057 35.0234 81.1306 35.1758 80.6852 35.1758C80.2398 35.1758 79.8648 35.0234 79.56 34.7187C79.2553 34.4139 79.1029 34.0389 79.1029 33.5935V23.9586C79.1029 21.0987 77.8136 19.6687 75.2349 19.6687C74.0628 19.6687 73.0079 19.9734 72.0702 20.5829C71.1559 21.1924 70.2885 22.0129 69.4681 23.0444V33.5935C69.4681 34.0389 69.304 34.4139 68.9758 34.7187C68.671 35.0234 68.2959 35.1758 67.8505 35.1758ZM92.2672 35.3516C91.2358 35.3516 90.2746 35.1407 89.3838 34.7187C88.5165 34.2967 87.8249 33.6872 87.3092 32.8902C86.7934 32.0697 86.5356 31.132 86.5356 30.0771C86.5356 28.3424 87.2154 26.9593 88.5751 25.9278C89.9582 24.8963 91.9742 24.3806 94.6232 24.3806L98.878 24.3806V24.0993C98.878 22.5521 98.4912 21.4386 97.7176 20.7588C96.9674 20.0789 95.7836 19.739 94.1661 19.739C93.2753 19.739 92.4782 19.8093 91.7749 19.95C91.0951 20.0906 90.3332 20.3016 89.4893 20.5829C89.3018 20.6298 89.1494 20.6533 89.0322 20.6533C88.6806 20.6533 88.3758 20.5243 88.1179 20.2665C87.8601 20.0086 87.7311 19.6921 87.7311 19.3171C87.7311 18.6841 88.0359 18.2387 88.6454 17.9808C90.638 17.1369 92.6658 16.7149 94.7287 16.7149C96.3462 16.7149 97.7059 17.0431 98.8077 17.6995C99.9329 18.3559 100.753 19.2116 101.269 20.2665C101.808 21.2979 102.078 22.4232 102.078 23.6422V33.5935C102.078 34.0389 101.914 34.4139 101.586 34.7187C101.281 35.0234 100.906 35.1758 100.46 35.1758C100.015 35.1758 99.6399 35.0234 99.3351 34.7187C99.0304 34.4139 98.878 34.0389 98.878 33.5935V32.6792C97.1433 34.4608 94.9397 35.3516 92.2672 35.3516ZM93.4628 32.5386C94.4943 32.5386 95.4906 32.2924 96.4517 31.8001C97.4128 31.2844 98.2216 30.6514 98.878 29.9013V26.9475L95.0452 26.9475C91.5054 26.9475 89.7355 27.8735 89.7355 29.7255C89.7355 30.5694 90.0168 31.2492 90.5794 31.765C91.1654 32.2807 92.1266 32.5386 93.4628 32.5386ZM109.024 35.1758C108.578 35.1758 108.203 35.0234 107.898 34.7187C107.594 34.4139 107.441 34.0389 107.441 33.5935V18.5083C107.441 18.0629 107.594 17.6878 107.898 17.3831C108.203 17.0549 108.578 16.8908 109.024 16.8908C109.469 16.8908 109.844 17.0549 110.149 17.3831C110.477 17.6878 110.641 18.0629 110.641 18.5083V20.0203C112.282 17.8167 114.122 16.7149 116.162 16.7149H116.338C116.783 16.7149 117.146 16.8673 117.428 17.1721C117.732 17.4768 117.885 17.8519 117.885 18.2973C117.885 18.7427 117.732 19.1061 117.428 19.3874C117.123 19.6687 116.736 19.8093 116.267 19.8093H116.091C114.966 19.8093 113.935 20.0906 112.997 20.6533C112.059 21.1924 111.274 21.9426 110.641 22.9037V33.5935C110.641 34.0389 110.477 34.4139 110.149 34.7187C109.844 35.0234 109.469 35.1758 109.024 35.1758ZM128.404 35.3516C125.544 35.3516 123.306 34.5429 121.688 32.9253C120.094 31.2844 119.297 28.987 119.297 26.0333C119.297 24.3689 119.602 22.8334 120.211 21.4269C120.821 20.0203 121.758 18.8834 123.024 18.016C124.29 17.1486 125.849 16.7149 127.701 16.7149C129.436 16.7149 130.936 17.1252 132.202 17.9457C133.468 18.7427 134.429 19.8211 135.085 21.1807C135.742 22.5169 136.07 23.9821 136.07 25.5762C136.07 26.0216 135.918 26.3966 135.613 26.7014C135.332 27.0061 134.945 27.1585 134.453 27.1585H122.532C122.72 28.7995 123.329 30.0771 124.361 30.9914C125.392 31.9056 126.834 32.3627 128.686 32.3627C129.67 32.3627 130.526 32.269 131.253 32.0814C132.003 31.8939 132.73 31.6243 133.433 31.2727C133.62 31.1789 133.831 31.132 134.066 31.132C134.441 31.132 134.769 31.2609 135.05 31.5188C135.332 31.7767 135.472 32.1049 135.472 32.5034C135.472 33.0191 135.168 33.4528 134.558 33.8044C133.644 34.3202 132.741 34.707 131.85 34.9648C130.96 35.2227 129.811 35.3516 128.404 35.3516ZM132.905 24.5564C132.835 23.4077 132.53 22.4466 131.991 21.673C131.475 20.8994 130.831 20.3368 130.057 19.9852C129.283 19.6101 128.498 19.4225 127.701 19.4225C126.904 19.4225 126.119 19.6101 125.345 19.9852C124.572 20.3368 123.927 20.8994 123.411 21.673C122.895 22.4466 122.602 23.4077 122.532 24.5564H132.905Z" fill="#ED4821"/>
</svg>
