<svg width="15" height="15" viewBox="0 0 15 15" fill="none" xmlns="http://www.w3.org/2000/svg">
<path fill-rule="evenodd" clip-rule="evenodd" d="M5.49955 0C5.10172 9.04147e-05 4.72023 0.158212 4.43899 0.439581C4.15774 0.720949 3.9998 1.10252 3.99989 1.50034C3.99998 1.89817 4.1581 2.27966 4.43947 2.5609C4.72084 2.84214 5.1024 3.00009 5.50023 3H7.00023V1.5C6.99987 1.10229 6.84172 0.720965 6.56049 0.439739C6.27926 0.158512 5.89726 0.000361066 5.49955 0ZM5.49955 4.00023H1.5C1.10218 4.00023 0.720644 4.15826 0.43934 4.43957C0.158035 4.72087 0 5.1024 0 5.50023C0 5.89805 0.158035 6.27958 0.43934 6.56089C0.720644 6.84219 1.10218 7.00023 1.5 7.00023H5.49955C5.89737 7.00023 6.2789 6.84219 6.56021 6.56089C6.84151 6.27958 6.99955 5.89805 6.99955 5.50023C6.99955 5.1024 6.84151 4.72087 6.56021 4.43957C6.2789 4.15826 5.89737 4.00023 5.49955 4.00023ZM15 5.49955C15 5.10172 14.842 4.72019 14.5607 4.43889C14.2794 4.15758 13.8978 3.99955 13.5 3.99955C13.1022 3.99955 12.7206 4.15758 12.4393 4.43889C12.158 4.72019 12 5.10172 12 5.49955V6.99955H13.5C13.8978 6.99955 14.2794 6.84151 14.5607 6.56021C14.842 6.2789 15 5.89737 15 5.49955ZM10.9998 5.49955V1.5C10.9998 1.10218 10.8417 0.720644 10.5604 0.43934C10.2791 0.158035 9.8976 0 9.49977 0C9.10195 0 8.72042 0.158035 8.43911 0.43934C8.15781 0.720644 7.99977 1.10218 7.99977 1.5V5.49955C7.99977 5.89737 8.15781 6.2789 8.43911 6.56021C8.72042 6.84151 9.10195 6.99955 9.49977 6.99955C9.8976 6.99955 10.2791 6.84151 10.5604 6.56021C10.8417 6.2789 10.9998 5.89737 10.9998 5.49955ZM9.49977 15C9.8976 15 10.2791 14.842 10.5604 14.5607C10.8417 14.2794 10.9998 13.8978 10.9998 13.5C10.9998 13.1022 10.8417 12.7206 10.5604 12.4393C10.2791 12.158 9.8976 12 9.49977 12H7.99977V13.5C7.99995 13.8978 8.15805 14.2792 8.43931 14.5605C8.72058 14.8417 9.102 14.9998 9.49977 15ZM9.49977 10.9991H13.5C13.8978 10.9991 14.2794 10.8411 14.5607 10.5598C14.842 10.2784 15 9.89692 15 9.49909C15 9.10127 14.842 8.71974 14.5607 8.43843C14.2794 8.15713 13.8978 7.99909 13.5 7.99909H9.50045C9.10263 7.999 8.72106 8.15695 8.43969 8.43819C8.15833 8.71943 8.0002 9.10093 8.00011 9.49875C8.00002 9.89657 8.15797 10.2781 8.43921 10.5595C8.72045 10.8409 9.10195 10.999 9.49977 10.9991ZM0 9.49977C0 9.8976 0.158035 10.2791 0.43934 10.5604C0.720644 10.8417 1.10218 10.9998 1.5 10.9998C1.89782 10.9998 2.27936 10.8417 2.56066 10.5604C2.84196 10.2791 3 9.8976 3 9.49977V7.99977H1.5C1.10218 7.99977 0.720644 8.15781 0.43934 8.43911C0.158035 8.72042 0 9.10195 0 9.49977ZM4.00023 9.49977V13.4993C4.00014 13.8971 4.15809 14.2787 4.43933 14.5601C4.72057 14.8414 5.10206 14.9996 5.49989 14.9997C5.89771 14.9998 6.27928 14.8418 6.56065 14.5606C6.84202 14.2793 7.00014 13.8978 7.00023 13.5V9.50045C7.00032 9.10263 6.84237 8.72106 6.56113 8.43969C6.27989 8.15833 5.89839 8.0002 5.50057 8.00011C5.10274 8.00002 4.72118 8.15797 4.43981 8.43921C4.15844 8.72045 4.00032 9.10195 4.00023 9.49977Z" fill="#FE4400"/>
</svg>
