<svg width="14" height="15" viewBox="0 0 14 15" fill="none" xmlns="http://www.w3.org/2000/svg">
<path d="M9.76516 5.81247H13.3814C13.7231 5.81247 14 6.0996 14 6.45374V9.8682C14 11.1698 12.9821 12.225 11.7265 12.225H11.7157C10.4601 12.2252 9.44201 11.1702 9.44185 9.86854V6.14768C9.44184 6.10366 9.4502 6.06007 9.46645 6.0194C9.48269 5.97873 9.5065 5.94178 9.53653 5.91065C9.56655 5.87953 9.60219 5.85484 9.64142 5.83799C9.68065 5.82114 9.7227 5.81247 9.76516 5.81247Z" fill="#5059C9"/>
<path d="M12.2093 5.13753C13.0185 5.13753 13.6744 4.45755 13.6744 3.61876C13.6744 2.77997 13.0185 2.1 12.2093 2.1C11.4001 2.1 10.7442 2.77997 10.7442 3.61876C10.7442 4.45755 11.4001 5.13753 12.2093 5.13753Z" fill="#5059C9"/>
<path d="M7.65116 5.13753C8.81996 5.13753 9.76746 4.15535 9.76746 2.94376C9.76746 1.73218 8.81996 0.75 7.65116 0.75C6.48237 0.75 5.53487 1.73218 5.53487 2.94376C5.53487 4.15535 6.48237 5.13753 7.65116 5.13753Z" fill="#7B83EB"/>
<path d="M10.473 5.81247H4.50379C4.1662 5.82115 3.89916 6.11156 3.90698 6.46151V10.3559C3.85984 12.4559 5.46257 14.1986 7.48836 14.25C9.51415 14.1986 11.1169 12.4559 11.0698 10.3559V6.46151C11.0776 6.11156 10.8106 5.82115 10.473 5.81247Z" fill="#7B83EB"/>
<path d="M7.81397 5.81247V11.2698C7.81319 11.3922 7.77754 11.5117 7.71151 11.6132C7.64548 11.7146 7.552 11.7936 7.4428 11.8403C7.37171 11.8714 7.29531 11.8875 7.21815 11.8875H4.19344C4.15111 11.7761 4.11206 11.6647 4.07947 11.55C3.9655 11.1627 3.90736 10.7601 3.90693 10.3552V6.46049C3.89911 6.11111 4.16571 5.82115 4.50275 5.81253L7.81397 5.81247Z" fill="#646BC7"/>
<path d="M7.48836 5.81247V11.6074C7.48836 11.6874 7.47288 11.7666 7.4428 11.8403C7.39785 11.9534 7.32164 12.0503 7.22374 12.1188C7.12584 12.1872 7.01062 12.2242 6.89254 12.225H4.34656C4.29122 12.1136 4.23899 12.0022 4.19344 11.8875C4.14967 11.7772 4.11163 11.6645 4.07947 11.55C3.9655 11.1627 3.90736 10.7601 3.90693 10.3552V6.46049C3.89911 6.11111 4.16571 5.82115 4.50275 5.81253L7.48836 5.81247Z" fill="#646BC7"/>
<path d="M7.48836 5.81247V10.9324C7.4859 11.2724 7.22061 11.5474 6.89254 11.55H4.07947C3.9655 11.1627 3.90736 10.7601 3.90693 10.3552V6.46049C3.89911 6.11111 4.16571 5.82115 4.50275 5.81253L7.48836 5.81247Z" fill="#646BC7"/>
<path d="M7.1628 5.81247V10.9324C7.16029 11.2724 6.895 11.5474 6.56698 11.55H4.07947C3.9655 11.1627 3.90736 10.7601 3.90693 10.3552V6.46049C3.89911 6.11111 4.16571 5.82115 4.50275 5.81253L7.1628 5.81247Z" fill="#646BC7"/>
<path d="M7.81397 4.06763V5.13073C7.75862 5.13413 7.70651 5.13753 7.65116 5.13753C7.59582 5.13753 7.5437 5.13413 7.48836 5.13073C7.37847 5.12317 7.26949 5.10511 7.1628 5.07676C6.83777 4.99697 6.53557 4.83856 6.28092 4.61448C6.02627 4.39041 5.82641 4.10703 5.69767 3.78753C5.65275 3.67868 5.61786 3.56567 5.59349 3.45H7.21815C7.54666 3.4513 7.81271 3.72704 7.81397 4.06763Z" fill="#646BC7"/>
<path d="M7.48836 4.4051V5.13073C7.37847 5.12317 7.26949 5.10511 7.1628 5.07676C6.83777 4.99697 6.53557 4.83856 6.28092 4.61448C6.02627 4.39041 5.82641 4.10703 5.69767 3.78753H6.89254C7.2211 3.78878 7.4871 4.06457 7.48836 4.4051Z" fill="#646BC7"/>
<path d="M7.48836 4.4051V5.13073C7.37847 5.12317 7.26949 5.10511 7.1628 5.07676C6.83777 4.99697 6.53557 4.83856 6.28092 4.61448C6.02627 4.39041 5.82641 4.10703 5.69767 3.78753H6.89254C7.2211 3.78878 7.4871 4.06457 7.48836 4.4051Z" fill="#646BC7"/>
<path d="M7.1628 4.4051V5.07676C6.83777 4.99697 6.53557 4.83856 6.28092 4.61448C6.02627 4.39041 5.82641 4.10703 5.69767 3.78753L6.56698 3.78747C6.89555 3.78878 7.16155 4.06457 7.1628 4.4051Z" fill="#646BC7"/>
<path d="M0.596805 3.78747H6.56595C6.8956 3.78747 7.1628 4.06446 7.1628 4.40612V10.5938C7.1628 10.9355 6.8956 11.2125 6.566 11.2125H0.596805C0.267203 11.2125 0 10.9355 0 10.5938V4.40618C0 4.0644 0.267203 3.78747 0.596805 3.78747Z" fill="url(#paint0_linear_330_549)"/>
<path d="M5.152 6.14257H3.95872V9.51083H3.19851V6.14257H2.0108V5.48917H5.152V6.14257Z" fill="white"/>
<defs>
<linearGradient id="paint0_linear_330_549" x1="2.43208" y1="-0.12885" x2="11.0787" y2="15.4012" gradientUnits="userSpaceOnUse">
<stop stop-color="#5A62C3"/>
<stop offset="0.5" stop-color="#4D55BD"/>
<stop offset="1" stop-color="#3940AB"/>
</linearGradient>
</defs>
</svg>
