<svg xmlns="http://www.w3.org/2000/svg" width="42.635" height="42.635" viewBox="0 0 42.635 42.635">
  <g id="Grupo_1592" data-name="Grupo 1592" transform="translate(0 0)">
    <path id="Caminho_5385" data-name="Caminho 5385" d="M400.174,199.559h0a5.843,5.843,0,0,1,8.262,0l30.952,30.952a5.843,5.843,0,0,1,0,8.262h0a5.839,5.839,0,0,1-8.259,0l-30.955-30.955A5.839,5.839,0,0,1,400.174,199.559Z" transform="translate(-398.463 -197.848)" fill="#ff7b42"/>
    <path id="Caminho_5386" data-name="Caminho 5386" d="M439.387,199.559h0a5.839,5.839,0,0,1,0,8.259l-30.952,30.955a5.843,5.843,0,0,1-8.262,0h0a5.843,5.843,0,0,1,0-8.262l30.955-30.952A5.839,5.839,0,0,1,439.387,199.559Z" transform="translate(-398.463 -197.848)" fill="#ff7b42"/>
  </g>
</svg>
